<svg xmlns="http://www.w3.org/2000/svg" width="12.573" height="16.214" viewBox="0 0 12.573 16.214">
  <g id="backlinks-in-seo" transform="translate(-6.806 -3.503)">
    <path id="Path_63" data-name="Path 63" d="M39.952,14.218H37.28V12.19Z" transform="translate(-21.182 -8.374)" fill="#fff"/>
    <path id="Path_66" data-name="Path 66" d="M20.713,14.169H17.125a.31.31,0,0,1-.309-.309V11.21h-8.6a.073.073,0,0,0-.077.073V27.347a.076.076,0,0,0,.077.077H20.636a.076.076,0,0,0,.077-.077V24.784a.011.011,0,0,0,0-.006.011.011,0,0,1,0-.006ZM9.135,12.823H14.83a.309.309,0,0,1,0,.619H9.135a.309.309,0,1,1,0-.619Zm0,1.8H14.83a.309.309,0,0,1,0,.619H9.135a.309.309,0,0,1,0-.619ZM9.278,18.8h2.21a.309.309,0,0,1,0,.619H9.278a.312.312,0,0,1-.309-.309A.308.308,0,0,1,9.278,18.8Zm-.309-1.856a.312.312,0,0,1,.309-.309h1.467a.309.309,0,1,1,0,.619H9.278A.312.312,0,0,1,8.969,16.943Zm.166,3.871h3.007a.309.309,0,1,1,0,.619H9.135a.309.309,0,0,1,0-.619Zm0,2.261h3.772a.309.309,0,1,1,0,.619H9.135a.312.312,0,0,1-.309-.309A.308.308,0,0,1,9.135,23.075Zm4.5,2.733h-4.5a.309.309,0,0,1,0-.619h4.5a.309.309,0,1,1,0,.619Zm5.915-5.3-.74.737a1.615,1.615,0,0,1,.357,1.011,1.651,1.651,0,0,1-.481,1.167l-1.719,1.715a1.647,1.647,0,0,1-2.331-2.328l.737-.737a1.634,1.634,0,0,1,.124-2.178l1.715-1.715A1.649,1.649,0,0,1,19.546,20.5Z" transform="translate(-1.334 -7.707)" fill="#fff"/>
    <path id="Path_68" data-name="Path 68" d="M16.6,16.579a.312.312,0,0,1-.309.309H10.592a.309.309,0,1,1,0-.619h5.695A.312.312,0,0,1,16.6,16.579Zm0,1.8a.312.312,0,0,1-.309.309H10.592a.309.309,0,1,1,0-.619h5.695A.312.312,0,0,1,16.6,18.381ZM12.512,20.39a.312.312,0,0,1-.309.309H10.736a.309.309,0,1,1,0-.619H12.2A.31.31,0,0,1,12.512,20.39Zm.746,2.165a.312.312,0,0,1-.309.309h-2.21a.309.309,0,1,1,0-.619h2.21A.308.308,0,0,1,13.258,22.555Zm.647,2.015a.31.31,0,0,1-.309.309H10.589a.309.309,0,0,1,0-.619H13.6A.308.308,0,0,1,13.905,24.57Zm.768,2.261a.31.31,0,0,1-.309.309H10.592a.309.309,0,0,1,0-.619h3.772A.308.308,0,0,1,14.674,26.831Zm.724,2.114a.312.312,0,0,1-.309.309h-4.5a.309.309,0,0,1,0-.619h4.5A.312.312,0,0,1,15.4,28.945ZM21,21.624a1.655,1.655,0,0,0-2.334,0l-1.715,1.715a1.634,1.634,0,0,0-.124,2.178l-.737.737a1.644,1.644,0,0,0,0,2.328,1.651,1.651,0,0,0,2.331,0l1.719-1.715a1.651,1.651,0,0,0,.481-1.167,1.634,1.634,0,0,0-.357-1.011l.74-.737A1.652,1.652,0,0,0,21,21.624Zm-1.3,4.8-1.719,1.719a1.055,1.055,0,0,1-1.454,0,1.033,1.033,0,0,1,0-1.454l.765-.765a1.636,1.636,0,0,0,1.99-.255l.545-.545a1.025,1.025,0,0,1-.128,1.3Zm-1.942-.966.488-.488a1.032,1.032,0,0,1,1.09-.233l-.494.491A1.04,1.04,0,0,1,17.76,25.459Zm2.8-1.948-.765.765a1.65,1.65,0,0,0-1.99.255l-.542.542a1,1,0,0,1-.175-.571,1.015,1.015,0,0,1,.3-.727l1.719-1.719a1.028,1.028,0,1,1,1.454,1.454Z" transform="translate(-2.791 -11.153)" fill="none"/>
    <path id="Path_69" data-name="Path 69" d="M32.051,36.461l-.494.491a1.053,1.053,0,0,1-1.084.23l.488-.488A1.032,1.032,0,0,1,32.051,36.461Zm.666.96a1.023,1.023,0,0,1-.3.727L30.7,39.867a1.055,1.055,0,0,1-1.454,0,1.033,1.033,0,0,1,0-1.454l.765-.765A1.636,1.636,0,0,0,32,37.392l.545-.545A1.04,1.04,0,0,1,32.717,37.421Zm.558-2.187L32.51,36a1.65,1.65,0,0,0-1.99.255l-.542.542a1,1,0,0,1-.175-.571,1.015,1.015,0,0,1,.3-.727l1.719-1.719a1.028,1.028,0,1,1,1.454,1.454Z" transform="translate(-15.503 -22.876)" fill="#fff"/>
  </g>
</svg>
