<svg xmlns="http://www.w3.org/2000/svg" width="25.724" height="16.044" viewBox="0 0 25.724 16.044">
  <g id="literature" transform="translate(-1 -12.691)">
    <path id="Path_53" data-name="Path 53" d="M20.018,43.617H11.061a.415.415,0,0,1,0-.831H19.6V38.981H5.831v3.805H9.267a.415.415,0,0,1,0,.831H5.415A.415.415,0,0,1,5,43.2V38.565a.415.415,0,0,1,.415-.415h14.6a.415.415,0,0,1,.415.415V43.2A.415.415,0,0,1,20.018,43.617Z" transform="translate(-2.338 -14.882)" fill="#fff"/>
    <path id="Path_54" data-name="Path 54" d="M12.446,43.617h-1.62a.415.415,0,0,1-.415-.415V38.565a.415.415,0,1,1,.831,0v4.221h.789V40.165a.415.415,0,0,1,.831,0v3.024a.415.415,0,0,1-.415.428Zm7.241-1.5a.415.415,0,0,1-.415-.415V40.044a.415.415,0,0,1,.831,0v1.662A.415.415,0,0,1,19.687,42.122Zm1.662,0a.415.415,0,0,1-.415-.415V40.044a.415.415,0,0,1,.831,0v1.662A.415.415,0,0,1,21.348,42.122Z" transform="translate(-5.501 -14.882)" fill="#fff"/>
    <path id="Path_55" data-name="Path 55" d="M16.018,32.463H1.415A.415.415,0,0,1,1,32.048V27.415A.415.415,0,0,1,1.415,27h14.6a.415.415,0,0,1,.415.415v4.632A.415.415,0,0,1,16.018,32.463ZM1.831,31.632H15.6v-3.8H1.831Z" transform="translate(0 -8.364)" fill="#fff"/>
    <path id="Path_56" data-name="Path 56" d="M8.446,32.463H6.825a.415.415,0,0,1-.415-.415V28.662a.415.415,0,0,1,.831,0v2.954H8.03v-4.2a.415.415,0,0,1,.831,0v4.632A.415.415,0,0,1,8.446,32.463Zm7.241-1.5a.415.415,0,0,1-.415-.415V28.89a.415.415,0,0,1,.831,0v1.662A.415.415,0,0,1,15.687,30.967Zm1.662,0a.415.415,0,0,1-.415-.415V28.89a.415.415,0,0,1,.831,0v1.662A.415.415,0,0,1,17.348,30.967Z" transform="translate(-3.162 -8.364)" fill="#fff"/>
    <path id="Path_57" data-name="Path 57" d="M22.018,21.3H7.415A.415.415,0,0,1,7,20.886v-4.64a.415.415,0,0,1,.415-.415h14.6a.415.415,0,1,1,0,.831H7.831v3.81H21.6V19.39a.415.415,0,1,1,.831,0v1.5A.415.415,0,0,1,22.018,21.3Z" transform="translate(-3.507 -1.835)" fill="#fff"/>
    <path id="Path_58" data-name="Path 58" d="M12.825,19.466a.415.415,0,0,1-.415-.415v-4.64A.415.415,0,0,1,12.825,14h1.62a.415.415,0,0,1,.415.415v3.56a.415.415,0,0,1-.831,0V14.826h-.789v4.225A.415.415,0,0,1,12.825,19.466Zm8.861-1.5a.415.415,0,0,1-.415-.415V15.894a.415.415,0,1,1,.831,0v1.662A.415.415,0,0,1,21.687,17.971Zm1.662,0a.415.415,0,0,1-.415-.415V15.894a.415.415,0,1,1,.831,0v1.662A.415.415,0,0,1,23.348,17.971Zm5.093,10.764a.428.428,0,0,1-.415-.337L25.463,15.57a.416.416,0,0,1,.814-.166L28.77,27.829l3.739-.748L29.8,13.6l-4.154.831a.415.415,0,1,1-.162-.814l4.545-.914a.415.415,0,0,1,.312.062.44.44,0,0,1,.179.266l2.871,14.3a.415.415,0,0,1-.328.49l-4.545.914Z" transform="translate(-6.67 0)" fill="#fff"/>
    <path id="Path_59" data-name="Path 59" d="M48.475,29.463a.415.415,0,0,1-.415-.332l-.32-1.587a.415.415,0,0,1,.062-.312.391.391,0,0,1,.262-.179l4.537-.914a.415.415,0,0,1,.49.328l.32,1.587a.42.42,0,0,1-.324.49l-4.545.918A.3.3,0,0,1,48.475,29.463Zm.17-1.662.154.773,3.739-.748-.154-.773Zm-.469-7.3a.416.416,0,0,1-.091-.823l1.62-.328a.418.418,0,0,1,.166.818l-1.62.324Zm-.328-1.629a.417.417,0,1,1-.079-.831l1.616-.324a.424.424,0,0,1,.166.831l-1.62.328Z" transform="translate(-27.118 -2.934)" fill="#fff"/>
  </g>
</svg>
