<svg id="payment-card" xmlns="http://www.w3.org/2000/svg" width="22.467" height="16.85" viewBox="0 0 22.467 16.85">
  <path id="Path_84" data-name="Path 84" d="M20.711,8H4.564A1.757,1.757,0,0,0,2.808,9.755a.7.7,0,0,0,1.4,0A.351.351,0,0,1,4.564,9.4H20.711a.351.351,0,0,1,.351.351v2.457H19.608a1.4,1.4,0,0,0-1.354-1.053H1.4a1.406,1.406,0,0,0-1.4,1.4V23.446a1.406,1.406,0,0,0,1.4,1.4h16.85a1.406,1.406,0,0,0,1.4-1.4V21.691h1.053a1.757,1.757,0,0,0,1.755-1.755V9.755A1.757,1.757,0,0,0,20.711,8Zm.351,8.074h-1.4V13.617h1.4ZM1.4,23.446V12.564h16.85V23.446Zm19.307-3.159H19.658V17.478h1.4v2.457A.351.351,0,0,1,20.711,20.286Z" transform="translate(0 -8)" fill="#868686"/>
  <path id="Path_85" data-name="Path 85" d="M8.7,32.212h3.37a.7.7,0,0,0,.7-.7V28.7a.7.7,0,0,0-.7-.7H8.7a.7.7,0,0,0-.7.7V31.51a.7.7,0,0,0,.7.7ZM9.4,29.4H11.37v1.4H9.4Zm7.372,4.212H8.7a.7.7,0,1,0,0,1.4h8.074a.7.7,0,0,0,0-1.4Z" transform="translate(-5.192 -20.979)" fill="#868686"/>
  <circle id="Ellipse_47" data-name="Ellipse 47" cx="0.445" cy="0.445" r="0.445" transform="translate(15.686 5.754)" fill="#868686"/>
  <path id="Path_86" data-name="Path 86" d="M41.457,44H39.7a.7.7,0,0,0,0,1.4h1.755a.7.7,0,0,0,0-1.4Z" transform="translate(-25.309 -31.363)" fill="#868686"/>
</svg>
