<svg xmlns="http://www.w3.org/2000/svg" width="20.973" height="14.891" viewBox="0 0 20.973 14.891">
  <g id="scoreboard" transform="translate(-12 -17.8)">
    <path id="Path_60" data-name="Path 60" d="M21.772,21.2H15.9V32.525h5.925V21.2Zm-1.363,8.284c0,.052,0,.052-.052.1l-.052.052H17.263a.051.051,0,0,1-.052-.052c0-.052-.052-.052-.052-.1v-.262c0-.052,0-.052.052-.1l.052-.052h1.206V24.818l-1.049.629c-.052,0-.1.052-.157.052h-.1a.183.183,0,0,1-.052-.1v-.367a.051.051,0,0,1,.052-.052l.052-.052,1.311-.839H19.2a.051.051,0,0,1,.052.052v4.929H20.3l.052.052c0,.052.052.052.052.1v.262ZM24.341,30.9a.682.682,0,1,0-.682-.682A.694.694,0,0,0,24.341,30.9Zm8.494-9.7H26.911V32.525h5.925Zm-1.258,8.284c0,.052,0,.052-.052.1l-.052.052H28.221c-.052,0-.052-.052-.1-.052,0-.052-.052-.052-.052-.1v-.419c0-.052.052-.052.052-.1s.052-.052.1-.1l1.1-1.153c.21-.21.419-.472.629-.682a2.165,2.165,0,0,0,.367-.577l.157-.472a1.022,1.022,0,0,0,.052-.419.892.892,0,0,0-.052-.367,1.146,1.146,0,0,0-.157-.262c-.1-.052-.21-.157-.315-.157a1.022,1.022,0,0,0-.419-.052,1.452,1.452,0,0,0-.472.052c-.1.052-.262.1-.367.157s-.157.1-.262.157a.193.193,0,0,1-.157.052h-.052l-.052-.052v-.472l.052-.052c.052-.052.1-.1.157-.1l.315-.157c.157-.052.262-.1.419-.157a1.452,1.452,0,0,1,.472-.052,2.656,2.656,0,0,1,.682.1,1.088,1.088,0,0,1,.524.315,1.066,1.066,0,0,1,.315.472,1.885,1.885,0,0,1,.1.577,1.784,1.784,0,0,1-.052.524,1.878,1.878,0,0,1-.21.577,2.973,2.973,0,0,1-.419.682c-.262.315-.472.577-.786.891l-.734.839h2.464l.052.052c0,.052.052.052.052.1v.157A.162.162,0,0,1,31.577,29.484Zm-7.236-5.3a.682.682,0,1,0-.682-.682.694.694,0,0,0,.682.682Z" transform="translate(-1.855 -1.617)" fill="#fff"/>
    <path id="Path_61" data-name="Path 61" d="M12,32.691H32.973V17.8H12ZM24.374,19.268c0-.21.157-.315.367-.315h6.554a.3.3,0,0,1,.315.315V31.275a.393.393,0,0,1-.315.367H24.741a.351.351,0,0,1-.367-.315h0Zm-1.888,1.258a1.363,1.363,0,1,1-1.363,1.363h0A1.388,1.388,0,0,1,22.486,20.526Zm0,6.711A1.363,1.363,0,1,1,21.123,28.6h0a1.388,1.388,0,0,1,1.363-1.363Zm-9.123-7.97a.3.3,0,0,1,.315-.315h6.554a.3.3,0,0,1,.315.315V31.275a.351.351,0,0,1-.315.367H13.678c-.21,0-.315-.157-.315-.367Z" fill="#fff"/>
  </g>
</svg>
