<svg id="selection" xmlns="http://www.w3.org/2000/svg" width="18.682" height="18.116" viewBox="0 0 18.682 18.116">
  <path id="Path_74" data-name="Path 74" d="M0,0H2.264V2.264H0Z" transform="translate(4.529 13.587)" fill="#ff4d00"/>
  <path id="Path_75" data-name="Path 75" d="M0,1.132A1.132,1.132,0,0,0,1.132,2.264H2.264V0H0Z" transform="translate(0 13.587)" fill="#ff4d00"/>
  <path id="Path_76" data-name="Path 76" d="M0,0H2.264V2.264H0Z" transform="translate(0 9.058)" fill="#ff4d00"/>
  <path id="Path_77" data-name="Path 77" d="M0,0H2.264V2.264H0Z" transform="translate(0 4.529)" fill="#ff4d00"/>
  <path id="Path_78" data-name="Path 78" d="M0,1.132V2.264H2.264V0H1.132A1.132,1.132,0,0,0,0,1.132Z" transform="translate(0)" fill="#ff4d00"/>
  <path id="Path_79" data-name="Path 79" d="M0,0H2.264V2.264H0Z" transform="translate(4.529)" fill="#ff4d00"/>
  <path id="Path_80" data-name="Path 80" d="M0,0H2.264V2.264H0Z" transform="translate(9.058)" fill="#ff4d00"/>
  <path id="Path_81" data-name="Path 81" d="M2.264,1.132A1.132,1.132,0,0,0,1.132,0H0V2.264H2.264Z" transform="translate(13.587)" fill="#ff4d00"/>
  <path id="Path_82" data-name="Path 82" d="M0,0H2.264V2.264H0Z" transform="translate(13.587 4.529)" fill="#ff4d00"/>
  <path id="Path_83" data-name="Path 83" d="M0,0V10.19L3.4,7.36H7.926Z" transform="translate(10.756 7.926)" fill="#ff4d00"/>
</svg>
